<?xml version="1.0" encoding="utf-8"?>
<!-- Generator: Adobe Illustrator 16.0.0, SVG Export Plug-In . SVG Version: 6.00 Build 0)  -->
<!DOCTYPE svg PUBLIC "-//W3C//DTD SVG 1.1//EN" "http://www.w3.org/Graphics/SVG/1.1/DTD/svg11.dtd">
<svg version="1.1" id="Layer_1" xmlns="http://www.w3.org/2000/svg" xmlns:xlink="http://www.w3.org/1999/xlink" x="0px" y="0px"
	 width="87px" height="16.741px" viewBox="0 0 87 16.741" enable-background="new 0 0 87 16.741" xml:space="preserve">
<path fill="#949393" d="M6.912,5.405c0-0.636-0.534-1.17-1.169-1.17c-0.637,0-1.15,0.534-1.15,1.17c0,0.636,0.513,1.149,1.15,1.149
	c1.498,0,2.853,0.718,3.715,1.827c0.657,0.821,1.026,1.847,1.026,2.976c0,2.627-2.114,4.721-4.741,4.721s-4.741-2.073-4.741-4.782
	h3.591c0,0.656,0.513,1.17,1.15,1.17c0.635,0,1.169-0.514,1.169-1.15c0-0.636-0.534-1.169-1.169-1.169
	c-2.627,0-4.721-2.094-4.721-4.72s2.093-4.741,4.721-4.741s4.741,2.093,4.741,4.721H6.912z"/>
<polygon fill="#949393" points="20.232,6.39 26.492,0.684 28.319,0.684 28.319,16.077 24.255,16.077 24.255,8.175 20.232,11.849 
	16.189,8.196 16.189,16.077 12.125,16.077 12.125,0.684 13.953,0.684 "/>
<path fill="#949393" d="M29.161,16.077l7.184-15.393h1.826l7.246,15.393h-4.043l-0.944-2.011h-6.301l-0.923,2.011H29.161z
	 M35.708,10.658h3.14l-1.56-3.386L35.708,10.658z"/>
<path fill="#949393" d="M46.301,12.042l5.283-11.319h1.343l5.328,11.319h-2.973l-0.694-1.479h-4.633l-0.681,1.479H46.301z
	 M51.116,8.057h2.308l-1.146-2.49L51.116,8.057z"/>
<path fill="#949393" d="M68.199,16.077l-2.38-4.084h-2.505v4.084h-4.043V0.684h6.486c3.12,0,5.665,2.544,5.665,5.665
	c0,1.643-0.718,3.12-1.827,4.146l3.264,5.583H68.199z M63.314,8.504h2.505c1.23,0,2.216-0.965,2.216-2.197s-0.985-2.216-2.216-2.216
	h-2.505V8.504z"/>
<polygon fill="#949393" points="72.981,0.664 85.111,0.664 85.111,4.687 81.027,4.687 81.027,16.077 76.984,16.077 76.984,4.687 
	72.981,4.687 "/>
<rect x="46.2" y="13.324" fill="#949393" width="12.098" height="2.716"/>
</svg>
